<?xml version="1.0" encoding="UTF-8"?>
<svg xmlns="http://www.w3.org/2000/svg" width="34" height="34" viewBox="0 0 34 34" fill="none">
  <path fill-rule="evenodd" clip-rule="evenodd" d="M0.0078125 16.5442L1.76383 14.7881L2.55192 15.5762L1.58401 16.5442L2.55192 17.5121L1.76383 18.3002L0.0078125 16.5442ZM3.71676 14.0339L4.11096 12.441L3.1174 13.4346L3.71676 14.0339ZM7.61114 8.94083H9.18734L16.5276 1.60061L23.8677 8.94077L25.4439 8.94079L16.5276 0.0244141L7.61114 8.94083ZM23.8509 24.1644L16.5276 31.4877L9.39589 24.356H7.8197L16.5276 33.0639L25.4271 24.1643L23.8509 24.1644ZM28.925 20.6665L29.3262 19.0422L29.9377 19.6537L28.925 20.6665ZM31.4711 16.5442L30.5074 15.5804L31.2955 14.7923L33.0473 16.5442L31.2955 18.296L30.5074 17.5079L31.4711 16.5442Z" fill="#FFB600"></path>
  <path fill-rule="evenodd" clip-rule="evenodd" d="M17.758 23.0498L16.0602 21.9971L17.9319 14.4184H25.7759L25.9055 13.8031L27.8497 12.6643H7.08223L8.4373 13.8031L6.85012 20.2296L8.97288 19.2336H11.4521L12.0485 16.9098H9.5689L9.95713 15.4052L11.9633 14.4184H16.1826L14.3109 21.9971L12.1791 23.0498H4.51726L2.93555 21.8279L5.55059 11.2397L4.38445 10.0553H17.2747L18.717 11.2397L19.0096 10.0552L28.9176 10.0553L30.1079 11.2397L29.2946 14.5328L27.5963 15.4052L28.8509 16.3169L27.1881 23.0497L17.758 23.0498ZM22.1528 19.2336L20.0994 20.2296L20.908 16.9098H25.2284L24.6321 19.2336H22.1528Z" fill="#F0F0F0"></path>
</svg>
